<svg xmlns="http://www.w3.org/2000/svg" viewBox="0 0 151 32"><defs><style>.cls-1{isolation:isolate;}.cls-2{fill:#fff;}.cls-3{fill:#16f2d2;}.cls-4{fill:#1351fc;}</style></defs><title>HPro AI NVR-网页LOGO标签</title><g id="图层_4" data-name="图层 4"><g class="cls-1"><path class="cls-2" d="M41.62,9.08v5.59h6.79V9.08h2.2V22.47h-2.2V16.54H41.62v5.93H39.43V9.08Z"/><path class="cls-2" d="M58.78,9.08c3.23,0,4.86,1.37,4.86,4.11s-1.63,4.14-4.9,4.14H55.42v5.14H53.23V9.08Zm-3.36,6.38h3.19a3.55,3.55,0,0,0,2.14-.53,2.1,2.1,0,0,0,.67-1.74,2,2,0,0,0-.69-1.71A3.4,3.4,0,0,0,58.61,11H55.42Z"/><path class="cls-2" d="M71.12,12.76v2.13a4.63,4.63,0,0,0-1.39-.2,2.08,2.08,0,0,0-1.52.65,2.65,2.65,0,0,0-.77,2v5.14H65.32v-9.7h2.12v1.39A3.39,3.39,0,0,1,68.36,13a2.31,2.31,0,0,1,1.54-.53A2.71,2.71,0,0,1,71.12,12.76Z"/><path class="cls-2" d="M80.38,14a5.19,5.19,0,0,1,1.33,3.67,5.21,5.21,0,0,1-1.31,3.64,5.08,5.08,0,0,1-7.13,0A5.12,5.12,0,0,1,72,17.63,5.1,5.1,0,0,1,73.29,14a5.06,5.06,0,0,1,7.09,0Zm-5.61,1.35a4,4,0,0,0-.61,2.32,4,4,0,0,0,.61,2.31,2.56,2.56,0,0,0,4.13,0,4.11,4.11,0,0,0,.64-2.31,4,4,0,0,0-.64-2.32,2.56,2.56,0,0,0-4.13,0Z"/><path class="cls-2" d="M96.32,9.08l5.12,13.39H99.1l-1.22-3.36H92.27l-1.22,3.36H88.71L93.83,9.08Zm.9,8.23-2.1-5.87h-.07l-2.12,5.87Z"/><path class="cls-2" d="M105,9.08V22.47h-2.2V9.08Z"/><path class="cls-2" d="M116,9.08l6.62,9.66h.07V9.08h2.22V22.47h-2.14l-6.7-9.79H116v9.79h-2.2V9.08Z"/><path class="cls-2" d="M128.7,9.08,132.38,20h.05l3.68-10.91h2.38l-4.76,13.39h-2.65L126.32,9.08Z"/><path class="cls-2" d="M145.86,9.08a5.15,5.15,0,0,1,3.25.92,3.57,3.57,0,0,1,1.25,2.92,3.22,3.22,0,0,1-.56,1.86A2.86,2.86,0,0,1,148.09,16v0a2.41,2.41,0,0,1,2,2.34l.23,2.16a3.22,3.22,0,0,0,.8,2h-2.38a3.38,3.38,0,0,1-.58-1.74L148,19.08a2.28,2.28,0,0,0-.67-1.58,2.61,2.61,0,0,0-1.73-.49h-3.47v5.46H139.9V9.08Zm-3.77,6.06h3.47a3.1,3.1,0,0,0,2-.55,2,2,0,0,0,.62-1.57,1.89,1.89,0,0,0-.62-1.58,3.16,3.16,0,0,0-2-.48h-3.47Z"/></g><polygon class="cls-3" points="23.38 15.91 23.38 13.43 30.36 6.45 26.87 2.96 16.39 13.43 16.39 15.91 16.39 18.38 26.87 28.86 30.36 25.36 23.38 18.38 23.38 15.91"/><polygon class="cls-4" points="3.59 2.96 0.09 6.45 7.08 13.43 7.08 15.91 7.08 18.38 0.09 25.36 3.59 28.86 14.06 18.38 14.06 15.91 14.06 13.43 3.59 2.96"/></g></svg>